<svg xmlns="http://www.w3.org/2000/svg" xmlns:xlink="http://www.w3.org/1999/xlink" viewBox="0 0 1080 700" width="1080" height="700" preserveAspectRatio="xMidYMid meet" style="width: 100%; height: 100%; transform: translate3d(0px, 0px, 0px); content-visibility: visible;"><defs><clipPath id="__lottie_element_1111"><rect width="1080" height="700" x="0" y="0"></rect></clipPath><g id="__lottie_element_1117"><g transform="matrix(0.999999463558197,0,0,0.999999463558197,322.8401184082031,144.630126953125)" opacity="1" style="display: block;"><g opacity="1" transform="matrix(1,0,0,1,217.16000366210938,217.1649932861328)"><path fill="rgb(255,142,58)" fill-opacity="1" d=" M216.91000366210938,0.004999999888241291 C216.91000366210938,116.58499908447266 124.93000030517578,211.69500732421875 9.569999694824219,216.7050018310547 C7.848999977111816,216.78500366210938 6.130000114440918,216.8350067138672 4.400000095367432,216.86500549316406 C2.940000057220459,216.90499877929688 1.4700000286102295,216.9149932861328 0,216.9149932861328 C-1.4700000286102295,216.9149932861328 -2.940000057220459,216.90499877929688 -4.400000095367432,216.86500549316406 C-6.130000114440918,216.8350067138672 -7.849999904632568,216.78500366210938 -9.569999694824219,216.7050018310547 C-124.93000030517578,211.69500732421875 -216.91000366210938,116.58499908447266 -216.91000366210938,0.004999999888241291 C-216.91000366210938,-119.79499816894531 -119.80000305175781,-216.9149932861328 0,-216.9149932861328 C119.80000305175781,-216.9149932861328 216.91000366210938,-119.79499816894531 216.91000366210938,0.004999999888241291z"></path></g></g></g><g id="__lottie_element_1153"><g transform="matrix(0.999999463558197,0,0,0.999999463558197,322.8401184082031,144.630126953125)" opacity="1" style="display: block;"><g opacity="1" transform="matrix(1,0,0,1,217.16000366210938,217.1649932861328)"><path fill="rgb(255,142,58)" fill-opacity="1" d=" M216.91000366210938,0.004999999888241291 C216.91000366210938,116.58499908447266 124.93000030517578,211.69500732421875 9.569999694824219,216.7050018310547 C7.848999977111816,216.78500366210938 6.130000114440918,216.8350067138672 4.400000095367432,216.86500549316406 C2.940000057220459,216.90499877929688 1.4700000286102295,216.9149932861328 0,216.9149932861328 C-1.4700000286102295,216.9149932861328 -2.940000057220459,216.90499877929688 -4.400000095367432,216.86500549316406 C-6.130000114440918,216.8350067138672 -7.849999904632568,216.78500366210938 -9.569999694824219,216.7050018310547 C-124.93000030517578,211.69500732421875 -216.91000366210938,116.58499908447266 -216.91000366210938,0.004999999888241291 C-216.91000366210938,-119.79499816894531 -119.80000305175781,-216.9149932861328 0,-216.9149932861328 C119.80000305175781,-216.9149932861328 216.91000366210938,-119.79499816894531 216.91000366210938,0.004999999888241291z"></path></g></g></g><mask id="__lottie_element_1153_1" mask-type="alpha"><use xlink:href="#__lottie_element_1153"></use></mask><mask id="__lottie_element_1117_1" mask-type="alpha"><use xlink:href="#__lottie_element_1117"></use></mask></defs><g clip-path="url(#__lottie_element_1111)"><g transform="matrix(0.999999463558197,0,0,0.999999463558197,322.8401184082031,144.630126953125)" opacity="1" style="display: block;"><g opacity="1" transform="matrix(1,0,0,1,217.16000366210938,217.1649932861328)"><path fill="rgb(255,142,58)" fill-opacity="1" d=" M216.91000366210938,0.004999999888241291 C216.91000366210938,116.58499908447266 124.93000030517578,211.69500732421875 9.569999694824219,216.7050018310547 C7.848999977111816,216.78500366210938 6.130000114440918,216.8350067138672 4.400000095367432,216.86500549316406 C2.940000057220459,216.90499877929688 1.4700000286102295,216.9149932861328 0,216.9149932861328 C-1.4700000286102295,216.9149932861328 -2.940000057220459,216.90499877929688 -4.400000095367432,216.86500549316406 C-6.130000114440918,216.8350067138672 -7.849999904632568,216.78500366210938 -9.569999694824219,216.7050018310547 C-124.93000030517578,211.69500732421875 -216.91000366210938,116.58499908447266 -216.91000366210938,0.004999999888241291 C-216.91000366210938,-119.79499816894531 -119.80000305175781,-216.9149932861328 0,-216.9149932861328 C119.80000305175781,-216.9149932861328 216.91000366210938,-119.79499816894531 216.91000366210938,0.004999999888241291z"></path></g></g><g transform="matrix(1.1999891996383667,0,0,1.1999891996383667,279.41033935546875,101.1993408203125)" opacity="0.000016030516851515133" style="display: none;"><g opacity="1" transform="matrix(1,0,0,1,217.16000366210938,217.1649932861328)"><path stroke-linecap="butt" stroke-linejoin="miter" fill-opacity="0" stroke-miterlimit="4" stroke="rgb(255,142,58)" stroke-opacity="1" stroke-width="5" d=" M216.91000366210938,0.004999999888241291 C216.91000366210938,116.58499908447266 124.93000030517578,211.69500732421875 9.569999694824219,216.7050018310547 C7.848999977111816,216.78500366210938 6.130000114440918,216.8350067138672 4.400000095367432,216.86500549316406 C2.940000057220459,216.90499877929688 1.4700000286102295,216.9149932861328 0,216.9149932861328 C-1.4700000286102295,216.9149932861328 -2.940000057220459,216.90499877929688 -4.400000095367432,216.86500549316406 C-6.130000114440918,216.8350067138672 -7.849999904632568,216.78500366210938 -9.569999694824219,216.7050018310547 C-124.93000030517578,211.69500732421875 -216.91000366210938,116.58499908447266 -216.91000366210938,0.004999999888241291 C-216.91000366210938,-119.79499816894531 -119.80000305175781,-216.9149932861328 0,-216.9149932861328 C119.80000305175781,-216.9149932861328 216.91000366210938,-119.79499816894531 216.91000366210938,0.004999999888241291z"></path></g></g><g transform="matrix(0.07863625884056091,0.9467398524284363,-0.9467398524284363,0.07863625884056091,711.8397827148438,181.24517822265625)" opacity="1" style="display: block;"><g opacity="1" transform="matrix(1,0,0,1,17.334999084472656,192.34500122070312)"><path fill="rgb(255,255,255)" fill-opacity="1" d=" M17.075000762939453,0.004999999888241291 C17.075000762939453,0.5249999761581421 17.075000762939453,1.0449999570846558 17.084999084472656,1.565000057220459 C17.084999084472656,1.565000057220459 -15.515000343322754,1.565000057220459 -15.515000343322754,1.565000057220459 C-16.385000228881836,1.565000057220459 -17.084999084472656,0.8650000095367432 -17.084999084472656,-0.004999999888241291 C-17.084999084472656,-0.8650000095367432 -16.385000228881836,-1.565000057220459 -15.515000343322754,-1.565000057220459 C-15.515000343322754,-1.565000057220459 17.084999084472656,-1.565000057220459 17.084999084472656,-1.565000057220459 C17.075000762939453,-1.0449999570846558 17.075000762939453,-0.5149999856948853 17.075000762939453,0.004999999888241291z"></path></g><g opacity="1" transform="matrix(1,0,0,1,30.7549991607666,125.55000305175781)"><path fill="rgb(255,255,255)" fill-opacity="1" d=" M16.235000610351562,4.929999828338623 C15.824999809265137,5.889999866485596 15.425000190734863,6.860000133514404 15.024999618530273,7.840000152587891 C15.024999618530273,7.840000152587891 -15.055000305175781,-4.610000133514404 -15.055000305175781,-4.610000133514404 C-15.854999542236328,-4.940000057220459 -16.235000610351562,-5.860000133514404 -15.904999732971191,-6.659999847412109 C-15.574999809265137,-7.460000038146973 -14.645000457763672,-7.840000152587891 -13.845000267028809,-7.519999980926514 C-13.845000267028809,-7.519999980926514 16.235000610351562,4.929999828338623 16.235000610351562,4.929999828338623z"></path></g><g opacity="1" transform="matrix(1,0,0,1,30.795000076293945,259.135009765625)"><path fill="rgb(255,255,255)" fill-opacity="1" d=" M16.225000381469727,-4.84499979019165 C16.225000381469727,-4.84499979019165 -13.845000267028809,7.625 -13.845000267028809,7.625 C-14.03499984741211,7.715000152587891 -14.234999656677246,7.744999885559082 -14.444999694824219,7.744999885559082 C-15.055000305175781,7.744999885559082 -15.645000457763672,7.383999824523926 -15.895000457763672,6.784999847412109 C-16.225000381469727,5.974999904632568 -15.845000267028809,5.054999828338623 -15.045000076293945,4.724999904632568 C-15.045000076293945,4.724999904632568 15.024999618530273,-7.744999885559082 15.024999618530273,-7.744999885559082 C15.414999961853027,-6.775000095367432 15.8149995803833,-5.804999828338623 16.225000381469727,-4.84499979019165z"></path></g><g opacity="1" transform="matrix(1,0,0,1,68.8499984741211,68.83999633789062)"><path fill="rgb(255,255,255)" fill-opacity="1" d=" M12.9399995803833,10.729999542236328 C12.1899995803833,11.449999809265137 11.449999809265137,12.1899995803833 10.720000267028809,12.9399995803833 C10.720000267028809,12.9399995803833 -12.329999923706055,-10.109999656677246 -12.329999923706055,-10.109999656677246 C-12.9399995803833,-10.720000267028809 -12.9399995803833,-11.720000267028809 -12.329999923706055,-12.329999923706055 C-11.720000267028809,-12.9399995803833 -10.720000267028809,-12.9399995803833 -10.109999656677246,-12.329999923706055 C-10.109999656677246,-12.329999923706055 12.9399995803833,10.729999542236328 12.9399995803833,10.729999542236328z"></path></g><g opacity="1" transform="matrix(1,0,0,1,68.8499984741211,315.7749938964844)"><path fill="rgb(255,255,255)" fill-opacity="1" d=" M12.9399995803833,-10.645000457763672 C12.9399995803833,-10.645000457763672 -10.109999656677246,12.404999732971191 -10.109999656677246,12.404999732971191 C-10.420000076293945,12.71500015258789 -10.819999694824219,12.864999771118164 -11.220000267028809,12.864999771118164 C-11.630000114440918,12.864999771118164 -12.029999732971191,12.71500015258789 -12.329999923706055,12.404999732971191 C-12.9399995803833,11.795000076293945 -12.9399995803833,10.795000076293945 -12.329999923706055,10.1850004196167 C-12.329999923706055,10.1850004196167 10.720000267028809,-12.864999771118164 10.720000267028809,-12.864999771118164 C11.460000038146973,-12.114999771118164 12.1899995803833,-11.375 12.9399995803833,-10.645000457763672z"></path></g><g opacity="1" transform="matrix(1,0,0,1,125.44999694824219,30.790000915527344)"><path fill="rgb(255,255,255)" fill-opacity="1" d=" M7.849999904632568,15.029999732971191 C6.880000114440918,15.420000076293945 5.909999847412109,15.819999694824219 4.949999809265137,16.229999542236328 C4.949999809265137,16.229999542236328 -7.519999980926514,-13.84000015258789 -7.519999980926514,-13.84000015258789 C-7.849999904632568,-14.640000343322754 -7.46999979019165,-15.569999694824219 -6.670000076293945,-15.899999618530273 C-5.860000133514404,-16.229999542236328 -4.949999809265137,-15.850000381469727 -4.619999885559082,-15.050000190734863 C-4.619999885559082,-15.050000190734863 7.849999904632568,15.029999732971191 7.849999904632568,15.029999732971191z"></path></g><g opacity="1" transform="matrix(1,0,0,1,125.55500030517578,353.8399963378906)"><path fill="rgb(255,255,255)" fill-opacity="1" d=" M7.84499979019165,-14.930000305175781 C7.84499979019165,-14.930000305175781 -4.605000019073486,15.151000022888184 -4.605000019073486,15.151000022888184 C-4.864999771118164,15.760000228881836 -5.445000171661377,16.1299991607666 -6.054999828338623,16.1299991607666 C-6.255000114440918,16.1299991607666 -6.465000152587891,16.079999923706055 -6.664999961853027,16 C-7.465000152587891,15.670000076293945 -7.84499979019165,14.760000228881836 -7.505000114440918,13.949999809265137 C-7.505000114440918,13.949999809265137 4.945000171661377,-16.1299991607666 4.945000171661377,-16.1299991607666 C5.90500020980835,-15.720000267028809 6.875,-15.319999694824219 7.84499979019165,-14.930000305175781z"></path></g><g opacity="1" transform="matrix(1,0,0,1,192.35000610351562,17.334999084472656)"><path fill="rgb(255,255,255)" fill-opacity="1" d=" M1.5700000524520874,-15.515000343322754 C1.5700000524520874,-15.515000343322754 1.5700000524520874,17.084999084472656 1.5700000524520874,17.084999084472656 C1.0490000247955322,17.075000762939453 0.5199999809265137,17.075000762939453 0,17.075000762939453 C-0.5199999809265137,17.075000762939453 -1.0499999523162842,17.075000762939453 -1.5700000524520874,17.084999084472656 C-1.5700000524520874,17.084999084472656 -1.5700000524520874,-15.515000343322754 -1.5700000524520874,-15.515000343322754 C-1.5700000524520874,-16.385000228881836 -0.8700000047683716,-17.084999084472656 0,-17.084999084472656 C0.8700000047683716,-17.084999084472656 1.5700000524520874,-16.385000228881836 1.5700000524520874,-15.515000343322754z"></path></g><g opacity="1" transform="matrix(1,0,0,1,192.35000610351562,367.3550109863281)"><path fill="rgb(255,255,255)" fill-opacity="1" d=" M1.5700000524520874,-17.084999084472656 C1.5700000524520874,-17.084999084472656 1.5700000524520874,15.515999794006348 1.5700000524520874,15.515999794006348 C1.5700000524520874,16.38599967956543 0.8700000047683716,17.084999084472656 0,17.084999084472656 C-0.8700000047683716,17.084999084472656 -1.5700000524520874,16.38599967956543 -1.5700000524520874,15.515999794006348 C-1.5700000524520874,15.515999794006348 -1.5700000524520874,-17.084999084472656 -1.5700000524520874,-17.084999084472656 C-1.0499999523162842,-17.075000762939453 -0.5199999809265137,-17.075000762939453 0,-17.075000762939453 C0.5199999809265137,-17.075000762939453 1.0490000247955322,-17.075000762939453 1.5700000524520874,-17.084999084472656z"></path></g><g opacity="1" transform="matrix(1,0,0,1,259.1449890136719,30.7450008392334)"><path fill="rgb(255,255,255)" fill-opacity="1" d=" M7.514999866485596,-13.845000267028809 C7.514999866485596,-13.845000267028809 -4.934999942779541,16.235000610351562 -4.934999942779541,16.235000610351562 C-5.894999980926514,15.824999809265137 -6.864999771118164,15.425000190734863 -7.843999862670898,15.03499984741211 C-7.843999862670898,15.03499984741211 4.605000019073486,-15.045000076293945 4.605000019073486,-15.045000076293945 C4.945000171661377,-15.845000267028809 5.864999771118164,-16.235000610351562 6.664000034332275,-15.895000457763672 C7.464000225067139,-15.5649995803833 7.84499979019165,-14.654999732971191 7.514999866485596,-13.845000267028809z"></path></g><g opacity="1" transform="matrix(1,0,0,1,259.25,353.7900085449219)"><path fill="rgb(255,255,255)" fill-opacity="1" d=" M6.671000003814697,16.010000228881836 C6.4710001945495605,16.09000015258789 6.270999908447266,16.1200008392334 6.070000171661377,16.1200008392334 C5.449999809265137,16.1200008392334 4.869999885559082,15.760000228881836 4.619999885559082,15.15999984741211 C4.619999885559082,15.15999984741211 -7.85099983215332,-14.920000076293945 -7.85099983215332,-14.920000076293945 C-6.88100004196167,-15.3100004196167 -5.909999847412109,-15.710000038146973 -4.949999809265137,-16.1200008392334 C-4.949999809265137,-16.1200008392334 7.520999908447266,13.949999809265137 7.520999908447266,13.949999809265137 C7.85099983215332,14.75 7.4710001945495605,15.680000305175781 6.671000003814697,16.010000228881836z"></path></g><g opacity="1" transform="matrix(1,0,0,1,315.8550109863281,315.7699890136719)"><path fill="rgb(255,255,255)" fill-opacity="1" d=" M12.335000038146973,12.40999984741211 C12.024999618530273,12.720000267028809 11.625,12.869999885559082 11.21500015258789,12.869999885559082 C10.824999809265137,12.869999885559082 10.414999961853027,12.720000267028809 10.105999946594238,12.40999984741211 C10.105999946594238,12.40999984741211 -12.944999694824219,-10.640000343322754 -12.944999694824219,-10.640000343322754 C-12.194999694824219,-11.380000114440918 -11.454999923706055,-12.119999885559082 -10.725000381469727,-12.869999885559082 C-10.725000381469727,-12.869999885559082 12.335000038146973,10.1899995803833 12.335000038146973,10.1899995803833 C12.944999694824219,10.800000190734863 12.944999694824219,11.800000190734863 12.335000038146973,12.40999984741211z"></path></g><g opacity="1" transform="matrix(1,0,0,1,315.8550109863281,68.84500122070312)"><path fill="rgb(255,255,255)" fill-opacity="1" d=" M12.335000038146973,-10.114999771118164 C12.335000038146973,-10.114999771118164 -10.725000381469727,12.944999694824219 -10.725000381469727,12.944999694824219 C-11.454999923706055,12.194999694824219 -12.194999694824219,11.454999923706055 -12.944999694824219,10.725000381469727 C-12.944999694824219,10.725000381469727 10.105999946594238,-12.335000038146973 10.105999946594238,-12.335000038146973 C10.72599983215332,-12.944999694824219 11.71500015258789,-12.944999694824219 12.335000038146973,-12.335000038146973 C12.944999694824219,-11.725000381469727 12.944999694824219,-10.725000381469727 12.335000038146973,-10.114999771118164z"></path></g><g opacity="1" transform="matrix(1,0,0,1,353.9049987792969,125.44499969482422)"><path fill="rgb(255,255,255)" fill-opacity="1" d=" M15.045000076293945,-4.614999771118164 C15.045000076293945,-4.614999771118164 -15.024999618530273,7.855000019073486 -15.024999618530273,7.855000019073486 C-15.416000366210938,6.885000228881836 -15.814000129699707,5.914999961853027 -16.225000381469727,4.954999923706055 C-16.225000381469727,4.954999923706055 13.845000267028809,-7.514999866485596 13.845000267028809,-7.514999866485596 C14.645000457763672,-7.855000019073486 15.565999984741211,-7.474999904632568 15.904999732971191,-6.675000190734863 C16.22599983215332,-5.864999771118164 15.845999717712402,-4.945000171661377 15.045000076293945,-4.614999771118164z"></path></g><g opacity="1" transform="matrix(1,0,0,1,353.94500732421875,259.0350036621094)"><path fill="rgb(255,255,255)" fill-opacity="1" d=" M15.904999732971191,6.764999866485596 C15.654999732971191,7.375 15.0649995803833,7.735000133514404 14.454999923706055,7.735000133514404 C14.255000114440918,7.735000133514404 14.045000076293945,7.695000171661377 13.845000267028809,7.625 C13.845000267028809,7.625 -16.235000610351562,-4.824999809265137 -16.235000610351562,-4.824999809265137 C-15.8149995803833,-5.795000076293945 -15.414999961853027,-6.764999866485596 -15.024999618530273,-7.735000133514404 C-15.024999618530273,-7.735000133514404 15.055000305175781,4.715000152587891 15.055000305175781,4.715000152587891 C15.854999542236328,5.045000076293945 16.235000610351562,5.965000152587891 15.904999732971191,6.764999866485596z"></path></g><g opacity="1" transform="matrix(1,0,0,1,367.364990234375,192.34500122070312)"><path fill="rgb(255,255,255)" fill-opacity="1" d=" M17.084999084472656,-0.004999999888241291 C17.084999084472656,0.8650000095367432 16.38599967956543,1.565000057220459 15.515999794006348,1.565000057220459 C15.515999794006348,1.565000057220459 -17.084999084472656,1.565000057220459 -17.084999084472656,1.565000057220459 C-17.073999404907227,1.0449999570846558 -17.073999404907227,0.5249999761581421 -17.073999404907227,0.004999999888241291 C-17.073999404907227,-0.5149999856948853 -17.073999404907227,-1.0449999570846558 -17.084999084472656,-1.565000057220459 C-17.084999084472656,-1.565000057220459 15.515999794006348,-1.565000057220459 15.515999794006348,-1.565000057220459 C16.38599967956543,-1.565000057220459 17.084999084472656,-0.8650000095367432 17.084999084472656,-0.004999999888241291z"></path></g></g><g mask="url(#__lottie_element_1153_1)" style="display: block;"><g transform="matrix(1,0.000001746071461639076,-0.000001746071461639076,1,456.7941589355469,338.68182373046875)" opacity="1"><g opacity="1" transform="matrix(1,0,0,1,84.38400268554688,78.91799926757812)"><path fill="rgb(84,0,0)" fill-opacity="1" d=" M-80.05799865722656,-45.125 C-22.36701202392578,-39.74494171142578 20.442974090576172,-42.88501739501953 76.18000030517578,-49.20399856567383 C77.19400024414062,-48.64500045776367 78.42400360107422,-26.152999877929688 79.96199798583984,-15.02299976348877 C84.3219985961914,16.525999069213867 52.64799880981445,67.12300109863281 11.303000450134277,72.62899780273438 C-34.03200149536133,78.66799926757812 -76.01599884033203,49.84600067138672 -81.66300201416016,6.491000175476074 C-84.13400268554688,-12.479999542236328 -80.40799713134766,-26.628999710083008 -80.05799865722656,-45.125z"></path></g></g></g><g mask="url(#__lottie_element_1117_1)" style="display: block;"><g transform="matrix(1,0.000001746071461639076,-0.000001746071461639076,1,454.540283203125,276.08984375)" opacity="1"><g opacity="1" transform="matrix(1,0,0,1,85.45999908447266,108.25499725341797)"><path fill="rgb(250,246,244)" fill-opacity="1" d=" M75.29000091552734,-98.65499877929688 C75.22000122070312,-103.82499694824219 70.98999786376953,-108.00499725341797 65.80000305175781,-108.00499725341797 C65.80000305175781,-108.00499725341797 -65.80000305175781,-108.00499725341797 -65.80000305175781,-108.00499725341797 C-70.98999786376953,-108.00499725341797 -75.22000122070312,-103.82499694824219 -75.29000091552734,-98.65499877929688 C-75.29000091552734,-98.65499877929688 -85.19999694824219,22.53499984741211 -85.19999694824219,22.53499984741211 C-85.19999694824219,22.53499984741211 -85.20999908447266,22.78499984741211 -85.20999908447266,22.78499984741211 C-85.20999908447266,45.45500183105469 -76.31999969482422,66.83499908447266 -60.18000030517578,82.9749984741211 C-46.33000183105469,96.82499694824219 -28.639999389648438,105.33499908447266 -9.569999694824219,107.46499633789062 C-7.860000133514404,107.66500091552734 -6.130000114440918,107.80500030517578 -4.400000095367432,107.8949966430664 C-2.940000057220459,107.96499633789062 -1.4700000286102295,108.00499725341797 0,108.00499725341797 C1.4700000286102295,108.00499725341797 2.940000057220459,107.96499633789062 4.400000095367432,107.8949966430664 C6.130000114440918,107.80500030517578 7.860000133514404,107.66500091552734 9.569999694824219,107.46499633789062 C28.639999389648438,105.33499908447266 46.33000183105469,96.82499694824219 60.18000030517578,82.9749984741211 C76.31999969482422,66.83499908447266 85.20999908447266,45.45500183105469 85.20999908447266,22.78499984741211 C85.20999908447266,22.78499984741211 85.20999908447266,22.655000686645508 85.20999908447266,22.655000686645508 C85.20999908447266,22.655000686645508 75.29000091552734,-98.65499877929688 75.29000091552734,-98.65499877929688z M-68.9800033569336,-98.25499725341797 C-68.9800033569336,-98.25499725341797 -68.97000122070312,-98.51499938964844 -68.97000122070312,-98.51499938964844 C-68.97000122070312,-100.25499725341797 -67.55000305175781,-101.67500305175781 -65.80000305175781,-101.67500305175781 C-65.80000305175781,-101.67500305175781 65.80000305175781,-101.67500305175781 65.80000305175781,-101.67500305175781 C67.55000305175781,-101.67500305175781 68.97000122070312,-100.25499725341797 68.97000122070312,-98.51499938964844 C68.97000122070312,-98.51499938964844 68.97000122070312,-98.38500213623047 68.97000122070312,-98.38500213623047 C68.97000122070312,-98.38500213623047 73.38999938964844,-44.30500030517578 73.38999938964844,-44.30500030517578 C73.38999938964844,-44.30500030517578 78.87999725341797,22.915000915527344 78.87999725341797,22.915000915527344 C78.81999969482422,66.3550033569336 43.45000076293945,101.67500305175781 0,101.67500305175781 C-43.45000076293945,101.67500305175781 -78.81999969482422,66.3550033569336 -78.87999725341797,22.915000915527344 C-78.87999725341797,22.915000915527344 -75.69999694824219,-15.975000381469727 -75.69999694824219,-15.975000381469727 C-75.69999694824219,-15.975000381469727 -68.9800033569336,-98.25499725341797 -68.9800033569336,-98.25499725341797z"></path></g><g opacity="1" transform="matrix(1,0,0,1,85.45999908447266,256.5050048828125)"><path fill="rgb(250,246,244)" fill-opacity="1" d=" M-9.569999694824219,-46.064998626708984 C-9.569999694824219,-46.064998626708984 -9.569999694824219,45.904998779296875 -9.569999694824219,45.904998779296875 C-7.849999904632568,45.98500061035156 -6.130000114440918,46.03499984741211 -4.400000095367432,46.064998626708984 C-4.400000095367432,46.064998626708984 -4.400000095367432,-40.89500045776367 -4.400000095367432,-40.89500045776367 C-4.400000095367432,-40.89500045776367 4.400000095367432,-40.89500045776367 4.400000095367432,-40.89500045776367 C4.400000095367432,-40.89500045776367 4.400000095367432,46.064998626708984 4.400000095367432,46.064998626708984 C6.130000114440918,46.03499984741211 7.848999977111816,45.98500061035156 9.569999694824219,45.904998779296875 C9.569999694824219,45.904998779296875 9.569999694824219,-46.064998626708984 9.569999694824219,-46.064998626708984 C9.569999694824219,-46.064998626708984 -9.569999694824219,-46.064998626708984 -9.569999694824219,-46.064998626708984z"></path></g></g></g><g transform="matrix(0.9154914021492004,0.12134330719709396,-0.12134330719709396,0.9154914021492004,382.6526794433594,529.4432373046875)" opacity="1" style="display: block;"><g opacity="1" transform="matrix(1,0,0,1,89.5009994506836,69.47899627685547)"><path fill="rgb(84,0,0)" fill-opacity="1" d=" M8.484000205993652,0 C8.484000205993652,4.685999870300293 4.685999870300293,8.482999801635742 0,8.482999801635742 C-4.684999942779541,8.482999801635742 -8.484000205993652,4.685999870300293 -8.484000205993652,0 C-8.484000205993652,-4.685999870300293 -4.684999942779541,-8.482999801635742 0,-8.482999801635742 C4.685999870300293,-8.482999801635742 8.484000205993652,-4.685999870300293 8.484000205993652,0z"></path></g></g><g transform="matrix(0.9154914021492004,0.12134330719709396,-0.12134330719709396,0.9154914021492004,345.8539123535156,557.6044921875)" opacity="1" style="display: block;"><g opacity="1" transform="matrix(1,0,0,1,27.025999069213867,27.025999069213867)"><path fill="rgb(84,0,0)" fill-opacity="1" d=" M26.775999069213867,0 C26.775999069213867,14.788000106811523 14.788000106811523,26.775999069213867 0,26.775999069213867 C-14.788000106811523,26.775999069213867 -26.775999069213867,14.788000106811523 -26.775999069213867,0 C-26.775999069213867,-14.788000106811523 -14.788000106811523,-26.775999069213867 0,-26.775999069213867 C14.788000106811523,-26.775999069213867 26.775999069213867,-14.788000106811523 26.775999069213867,0z"></path></g></g><g transform="matrix(0.9154914021492004,0.12134330719709396,-0.12134330719709396,0.9154914021492004,691.4560546875,589.1502685546875)" opacity="1" style="display: block;"><g opacity="1" transform="matrix(1,0,0,1,16.198999404907227,16.200000762939453)"><path fill="rgb(84,0,0)" fill-opacity="1" d=" M14.208000183105469,-1.7430000305175781 C14.208000183105469,-1.7430000305175781 4.206999778747559,-1.7430000305175781 4.206999778747559,-1.7430000305175781 C4.206999778747559,-1.7430000305175781 11.279000282287598,-8.814000129699707 11.279000282287598,-8.814000129699707 C11.958999633789062,-9.494000434875488 11.958999633789062,-10.597000122070312 11.279000282287598,-11.277999877929688 C10.598999977111816,-11.958999633789062 9.494999885559082,-11.958999633789062 8.814000129699707,-11.277999877929688 C8.814000129699707,-11.277999877929688 1.7430000305175781,-4.206999778747559 1.7430000305175781,-4.206999778747559 C1.7430000305175781,-4.206999778747559 1.7430000305175781,-14.206999778747559 1.7430000305175781,-14.206999778747559 C1.7430000305175781,-15.170000076293945 0.9629999995231628,-15.949000358581543 0.0010000000474974513,-15.949000358581543 C-0.9620000123977661,-15.949000358581543 -1.7410000562667847,-15.170000076293945 -1.7410000562667847,-14.206999778747559 C-1.7410000562667847,-14.206999778747559 -1.7410000562667847,-4.206999778747559 -1.7410000562667847,-4.206999778747559 C-1.7410000562667847,-4.206999778747559 -8.814000129699707,-11.277999877929688 -8.814000129699707,-11.277999877929688 C-9.494999885559082,-11.958999633789062 -10.597000122070312,-11.958999633789062 -11.277999877929688,-11.277999877929688 C-11.958000183105469,-10.597000122070312 -11.958000183105469,-9.494000434875488 -11.277999877929688,-8.814000129699707 C-11.277999877929688,-8.814000129699707 -4.205999851226807,-1.7430000305175781 -4.205999851226807,-1.7430000305175781 C-4.205999851226807,-1.7430000305175781 -14.206999778747559,-1.7430000305175781 -14.206999778747559,-1.7430000305175781 C-15.168999671936035,-1.7430000305175781 -15.949000358581543,-0.9629999995231628 -15.949000358581543,-0.0010000000474974513 C-15.949000358581543,0.9610000252723694 -15.168999671936035,1.7410000562667847 -14.206999778747559,1.7410000562667847 C-14.206999778747559,1.7410000562667847 -4.205999851226807,1.7410000562667847 -4.205999851226807,1.7410000562667847 C-4.205999851226807,1.7410000562667847 -11.277999877929688,8.814000129699707 -11.277999877929688,8.814000129699707 C-11.958000183105469,9.494000434875488 -11.958000183105469,10.597999572753906 -11.277999877929688,11.279000282287598 C-10.937999725341797,11.619000434875488 -10.491000175476074,11.788000106811523 -10.045999526977539,11.788000106811523 C-9.600000381469727,11.788000106811523 -9.154999732971191,11.619000434875488 -8.814000129699707,11.279000282287598 C-8.814000129699707,11.279000282287598 -1.7410000562667847,4.205999851226807 -1.7410000562667847,4.205999851226807 C-1.7410000562667847,4.205999851226807 -1.7410000562667847,14.206999778747559 -1.7410000562667847,14.206999778747559 C-1.7410000562667847,15.168999671936035 -0.9620000123977661,15.949000358581543 0.0010000000474974513,15.949000358581543 C0.9629999995231628,15.949000358581543 1.7430000305175781,15.168999671936035 1.7430000305175781,14.206999778747559 C1.7430000305175781,14.206999778747559 1.7430000305175781,4.205999851226807 1.7430000305175781,4.205999851226807 C1.7430000305175781,4.205999851226807 8.814000129699707,11.279000282287598 8.814000129699707,11.279000282287598 C9.154999732971191,11.619000434875488 9.60099983215332,11.788000106811523 10.04699993133545,11.788000106811523 C10.493000030517578,11.788000106811523 10.937999725341797,11.619000434875488 11.279000282287598,11.279000282287598 C11.958999633789062,10.597999572753906 11.958999633789062,9.494000434875488 11.279000282287598,8.814000129699707 C11.279000282287598,8.814000129699707 4.206999778747559,1.7410000562667847 4.206999778747559,1.7410000562667847 C4.206999778747559,1.7410000562667847 14.208000183105469,1.7410000562667847 14.208000183105469,1.7410000562667847 C15.170999526977539,1.7410000562667847 15.949000358581543,0.9610000252723694 15.949000358581543,-0.0010000000474974513 C15.949000358581543,-0.9629999995231628 15.170999526977539,-1.7430000305175781 14.208000183105469,-1.7430000305175781z"></path></g></g><g transform="matrix(0.9154914021492004,0.12134330719709396,-0.12134330719709396,0.9154914021492004,796.47021484375,261.1044921875)" opacity="1" style="display: block;"><g opacity="1" transform="matrix(1,0,0,1,16.198999404907227,16.200000762939453)"><path fill="rgb(84,0,0)" fill-opacity="1" d=" M14.208000183105469,-1.7430000305175781 C14.208000183105469,-1.7430000305175781 4.206999778747559,-1.7430000305175781 4.206999778747559,-1.7430000305175781 C4.206999778747559,-1.7430000305175781 11.279000282287598,-8.814000129699707 11.279000282287598,-8.814000129699707 C11.958999633789062,-9.494000434875488 11.958999633789062,-10.597000122070312 11.279000282287598,-11.277999877929688 C10.598999977111816,-11.958999633789062 9.494999885559082,-11.958999633789062 8.814000129699707,-11.277999877929688 C8.814000129699707,-11.277999877929688 1.7430000305175781,-4.206999778747559 1.7430000305175781,-4.206999778747559 C1.7430000305175781,-4.206999778747559 1.7430000305175781,-14.206999778747559 1.7430000305175781,-14.206999778747559 C1.7430000305175781,-15.170000076293945 0.9629999995231628,-15.949000358581543 0.0010000000474974513,-15.949000358581543 C-0.9620000123977661,-15.949000358581543 -1.7410000562667847,-15.170000076293945 -1.7410000562667847,-14.206999778747559 C-1.7410000562667847,-14.206999778747559 -1.7410000562667847,-4.206999778747559 -1.7410000562667847,-4.206999778747559 C-1.7410000562667847,-4.206999778747559 -8.814000129699707,-11.277999877929688 -8.814000129699707,-11.277999877929688 C-9.494999885559082,-11.958999633789062 -10.597000122070312,-11.958999633789062 -11.277999877929688,-11.277999877929688 C-11.958000183105469,-10.597000122070312 -11.958000183105469,-9.494000434875488 -11.277999877929688,-8.814000129699707 C-11.277999877929688,-8.814000129699707 -4.205999851226807,-1.7430000305175781 -4.205999851226807,-1.7430000305175781 C-4.205999851226807,-1.7430000305175781 -14.206999778747559,-1.7430000305175781 -14.206999778747559,-1.7430000305175781 C-15.168999671936035,-1.7430000305175781 -15.949000358581543,-0.9629999995231628 -15.949000358581543,-0.0010000000474974513 C-15.949000358581543,0.9610000252723694 -15.168999671936035,1.7410000562667847 -14.206999778747559,1.7410000562667847 C-14.206999778747559,1.7410000562667847 -4.205999851226807,1.7410000562667847 -4.205999851226807,1.7410000562667847 C-4.205999851226807,1.7410000562667847 -11.277999877929688,8.814000129699707 -11.277999877929688,8.814000129699707 C-11.958000183105469,9.494000434875488 -11.958000183105469,10.597999572753906 -11.277999877929688,11.279000282287598 C-10.937999725341797,11.619000434875488 -10.491000175476074,11.788000106811523 -10.045999526977539,11.788000106811523 C-9.600000381469727,11.788000106811523 -9.154999732971191,11.619000434875488 -8.814000129699707,11.279000282287598 C-8.814000129699707,11.279000282287598 -1.7410000562667847,4.205999851226807 -1.7410000562667847,4.205999851226807 C-1.7410000562667847,4.205999851226807 -1.7410000562667847,14.206999778747559 -1.7410000562667847,14.206999778747559 C-1.7410000562667847,15.168999671936035 -0.9620000123977661,15.949000358581543 0.0010000000474974513,15.949000358581543 C0.9629999995231628,15.949000358581543 1.7430000305175781,15.168999671936035 1.7430000305175781,14.206999778747559 C1.7430000305175781,14.206999778747559 1.7430000305175781,4.205999851226807 1.7430000305175781,4.205999851226807 C1.7430000305175781,4.205999851226807 8.814000129699707,11.279000282287598 8.814000129699707,11.279000282287598 C9.154999732971191,11.619000434875488 9.60099983215332,11.788000106811523 10.04699993133545,11.788000106811523 C10.493000030517578,11.788000106811523 10.937999725341797,11.619000434875488 11.279000282287598,11.279000282287598 C11.958999633789062,10.597999572753906 11.958999633789062,9.494000434875488 11.279000282287598,8.814000129699707 C11.279000282287598,8.814000129699707 4.206999778747559,1.7410000562667847 4.206999778747559,1.7410000562667847 C4.206999778747559,1.7410000562667847 14.208000183105469,1.7410000562667847 14.208000183105469,1.7410000562667847 C15.170999526977539,1.7410000562667847 15.949000358581543,0.9610000252723694 15.949000358581543,-0.0010000000474974513 C15.949000358581543,-0.9629999995231628 15.170999526977539,-1.7430000305175781 14.208000183105469,-1.7430000305175781z"></path></g></g><g transform="matrix(0.9154914021492004,0.12134330719709396,-0.12134330719709396,0.9154914021492004,629.46337890625,67.48190307617188)" opacity="1" style="display: block;"><g opacity="1" transform="matrix(1,0,0,1,16.198999404907227,16.200000762939453)"><path fill="rgb(84,0,0)" fill-opacity="1" d=" M14.208000183105469,-1.7430000305175781 C14.208000183105469,-1.7430000305175781 4.206999778747559,-1.7430000305175781 4.206999778747559,-1.7430000305175781 C4.206999778747559,-1.7430000305175781 11.279000282287598,-8.814000129699707 11.279000282287598,-8.814000129699707 C11.958999633789062,-9.494000434875488 11.958999633789062,-10.597000122070312 11.279000282287598,-11.277999877929688 C10.598999977111816,-11.958999633789062 9.494999885559082,-11.958999633789062 8.814000129699707,-11.277999877929688 C8.814000129699707,-11.277999877929688 1.7430000305175781,-4.206999778747559 1.7430000305175781,-4.206999778747559 C1.7430000305175781,-4.206999778747559 1.7430000305175781,-14.206999778747559 1.7430000305175781,-14.206999778747559 C1.7430000305175781,-15.170000076293945 0.9629999995231628,-15.949000358581543 0.0010000000474974513,-15.949000358581543 C-0.9620000123977661,-15.949000358581543 -1.7410000562667847,-15.170000076293945 -1.7410000562667847,-14.206999778747559 C-1.7410000562667847,-14.206999778747559 -1.7410000562667847,-4.206999778747559 -1.7410000562667847,-4.206999778747559 C-1.7410000562667847,-4.206999778747559 -8.814000129699707,-11.277999877929688 -8.814000129699707,-11.277999877929688 C-9.494999885559082,-11.958999633789062 -10.597000122070312,-11.958999633789062 -11.277999877929688,-11.277999877929688 C-11.958000183105469,-10.597000122070312 -11.958000183105469,-9.494000434875488 -11.277999877929688,-8.814000129699707 C-11.277999877929688,-8.814000129699707 -4.205999851226807,-1.7430000305175781 -4.205999851226807,-1.7430000305175781 C-4.205999851226807,-1.7430000305175781 -14.206999778747559,-1.7430000305175781 -14.206999778747559,-1.7430000305175781 C-15.168999671936035,-1.7430000305175781 -15.949000358581543,-0.9629999995231628 -15.949000358581543,-0.0010000000474974513 C-15.949000358581543,0.9610000252723694 -15.168999671936035,1.7410000562667847 -14.206999778747559,1.7410000562667847 C-14.206999778747559,1.7410000562667847 -4.205999851226807,1.7410000562667847 -4.205999851226807,1.7410000562667847 C-4.205999851226807,1.7410000562667847 -11.277999877929688,8.814000129699707 -11.277999877929688,8.814000129699707 C-11.958000183105469,9.494000434875488 -11.958000183105469,10.597999572753906 -11.277999877929688,11.279000282287598 C-10.937999725341797,11.619000434875488 -10.491000175476074,11.788000106811523 -10.045999526977539,11.788000106811523 C-9.600000381469727,11.788000106811523 -9.154999732971191,11.619000434875488 -8.814000129699707,11.279000282287598 C-8.814000129699707,11.279000282287598 -1.7410000562667847,4.205999851226807 -1.7410000562667847,4.205999851226807 C-1.7410000562667847,4.205999851226807 -1.7410000562667847,14.206999778747559 -1.7410000562667847,14.206999778747559 C-1.7410000562667847,15.168999671936035 -0.9620000123977661,15.949000358581543 0.0010000000474974513,15.949000358581543 C0.9629999995231628,15.949000358581543 1.7430000305175781,15.168999671936035 1.7430000305175781,14.206999778747559 C1.7430000305175781,14.206999778747559 1.7430000305175781,4.205999851226807 1.7430000305175781,4.205999851226807 C1.7430000305175781,4.205999851226807 8.814000129699707,11.279000282287598 8.814000129699707,11.279000282287598 C9.154999732971191,11.619000434875488 9.60099983215332,11.788000106811523 10.04699993133545,11.788000106811523 C10.493000030517578,11.788000106811523 10.937999725341797,11.619000434875488 11.279000282287598,11.279000282287598 C11.958999633789062,10.597999572753906 11.958999633789062,9.494000434875488 11.279000282287598,8.814000129699707 C11.279000282287598,8.814000129699707 4.206999778747559,1.7410000562667847 4.206999778747559,1.7410000562667847 C4.206999778747559,1.7410000562667847 14.208000183105469,1.7410000562667847 14.208000183105469,1.7410000562667847 C15.170999526977539,1.7410000562667847 15.949000358581543,0.9610000252723694 15.949000358581543,-0.0010000000474974513 C15.949000358581543,-0.9629999995231628 15.170999526977539,-1.7430000305175781 14.208000183105469,-1.7430000305175781z"></path></g></g><g transform="matrix(-0.3822382688522339,0.8406798243522644,-0.8406798243522644,-0.3822382688522339,395.79766845703125,171.31326293945312)" opacity="1" style="display: block;"><g opacity="1" transform="matrix(1,0,0,1,89.5009994506836,69.47899627685547)"><path fill="rgb(84,0,0)" fill-opacity="1" d=" M8.484000205993652,0 C8.484000205993652,4.685999870300293 4.685999870300293,8.482999801635742 0,8.482999801635742 C-4.684999942779541,8.482999801635742 -8.484000205993652,4.685999870300293 -8.484000205993652,0 C-8.484000205993652,-4.685999870300293 -4.684999942779541,-8.482999801635742 0,-8.482999801635742 C4.685999870300293,-8.482999801635742 8.484000205993652,-4.685999870300293 8.484000205993652,0z"></path></g></g><g transform="matrix(-0.3822382688522339,0.8406798243522644,-0.8406798243522644,-0.3822382688522339,379.5495300292969,127.91693115234375)" opacity="1" style="display: block;"><g opacity="1" transform="matrix(1,0,0,1,27.025999069213867,27.025999069213867)"><path fill="rgb(84,0,0)" fill-opacity="1" d=" M26.775999069213867,0 C26.775999069213867,14.788000106811523 14.788000106811523,26.775999069213867 0,26.775999069213867 C-14.788000106811523,26.775999069213867 -26.775999069213867,14.788000106811523 -26.775999069213867,0 C-26.775999069213867,-14.788000106811523 -14.788000106811523,-26.775999069213867 0,-26.775999069213867 C14.788000106811523,-26.775999069213867 26.775999069213867,-14.788000106811523 26.775999069213867,0z"></path></g></g><g transform="matrix(0.9154914021492004,0.12134330719709396,-0.12134330719709396,0.9154914021492004,423.68695068359375,72.77984619140625)" opacity="1" style="display: block;"><g opacity="1" transform="matrix(1,0,0,1,23.85700035095215,42.1349983215332)"><path stroke-linecap="butt" stroke-linejoin="miter" fill-opacity="0" stroke-miterlimit="10" stroke="rgb(255,142,58)" stroke-opacity="1" stroke-width="3.163" d=" M15.949999809265137,0 C15.949999809265137,8.809000015258789 8.807999610900879,15.949999809265137 -0.0010000000474974513,15.949999809265137 C-8.809000015258789,15.949999809265137 -15.949999809265137,8.809000015258789 -15.949999809265137,0 C-15.949999809265137,-8.809000015258789 -8.809000015258789,-15.949999809265137 -0.0010000000474974513,-15.949999809265137 C8.807999610900879,-15.949999809265137 15.949999809265137,-8.809000015258789 15.949999809265137,0z"></path></g></g><g transform="matrix(0.9154914021492004,0.12134330719709396,-0.12134330719709396,0.9154914021492004,446.81231689453125,75.53143310546875)" opacity="1" style="display: block;"><g opacity="1" transform="matrix(1,0,0,1,328.260009765625,38.071998596191406)"><path stroke-linecap="butt" stroke-linejoin="miter" fill-opacity="0" stroke-miterlimit="10" stroke="rgb(255,142,58)" stroke-opacity="1" stroke-width="5.048" d=" M25.45199966430664,0 C25.45199966430664,14.057000160217285 14.055999755859375,25.45199966430664 0,25.45199966430664 C-14.057000160217285,25.45199966430664 -25.45199966430664,14.057000160217285 -25.45199966430664,0 C-25.45199966430664,-14.057000160217285 -14.057000160217285,-25.45199966430664 0,-25.45199966430664 C14.055999755859375,-25.45199966430664 25.45199966430664,-14.057000160217285 25.45199966430664,0z"></path></g></g><g transform="matrix(1.1998863220214844,0.000002095087211273494,-0.000002095087211273494,1.1998863220214844,503.1969909667969,466.7845153808594)" opacity="0.00026253244988453165" style="display: none;"><g opacity="1" transform="matrix(1,0,0,1,-26,-154)"><path stroke-linecap="butt" stroke-linejoin="miter" fill-opacity="0" stroke-miterlimit="4" stroke="rgb(255,255,255)" stroke-opacity="1" stroke-width="2" d=" M0,-38 C20.972200393676758,-38 38,-20.972200393676758 38,0 C38,20.972200393676758 20.972200393676758,38 0,38 C-20.972200393676758,38 -38,20.972200393676758 -38,0 C-38,-20.972200393676758 -20.972200393676758,-38 0,-38z"></path></g></g><g transform="matrix(0.8999146819114685,0.0000015713153516117018,-0.0000015713153516117018,0.8999146819114685,495.3977966308594,420.5888671875)" opacity="0.00026253244988453165" style="display: none;"><g opacity="1" transform="matrix(1,0,0,1,-26,-154)"><path fill="rgb(255,255,255)" fill-opacity="1" d=" M0,-38 C20.972200393676758,-38 38,-20.972200393676758 38,0 C38,20.972200393676758 20.972200393676758,38 0,38 C-20.972200393676758,38 -38,20.972200393676758 -38,0 C-38,-20.972200393676758 -20.972200393676758,-38 0,-38z"></path><path stroke-linecap="butt" stroke-linejoin="miter" fill-opacity="0" stroke-miterlimit="4" stroke="rgb(255,255,255)" stroke-opacity="1" stroke-width="0" d=" M0,-38 C20.972200393676758,-38 38,-20.972200393676758 38,0 C38,20.972200393676758 20.972200393676758,38 0,38 C-20.972200393676758,38 -38,20.972200393676758 -38,0 C-38,-20.972200393676758 -20.972200393676758,-38 0,-38z"></path></g></g></g></svg>